<svg xmlns="http://www.w3.org/2000/svg" version="1.1" width="600px" height="600px" xlink="http://www.w3.org/1999/xlink" style="overflow:hidden!important;"><g id="svga-group-wrapper" transform="scale(3 3)"><g id="svga-group-backs-single"></g><g id="svga-group-subwrapper" transform="matrix(0.84999948 0 0 0.84999948 14.979303539305008 16.551697442740803) translate(0 2)"><g id="svga-group-hair-back" ><path id="SvgjsPath3781" d="M100.5,100.5h-1v-1h1V100.5z" fill="#6b4e40" stroke-width="none" opacity="1" stroke="none"></path></g><g id="svga-group-humanbody-single"><path id="SvgjsPath2893" d="M195.417 199.778c-2.196-4.746-8.195-11.779-14.86-13.722 -8.239-2.403-26.837-5.308-33.733-6.923 -5.528-1.296-16.662-11.294-20.564-14.65 -0.7-0.6-1.273-1.839-1.287-2.76 -0.139-10.864 4.195-39.724 4.195-39.724H100 70.833c0 0 4.334 28.859 4.193 39.724 -0.011 0.921-0.587 2.16-1.285 2.76 -3.902 3.356-15.036 13.354-20.564 14.65 -6.897 1.615-25.495 4.619-33.733 7.022 -6.667 1.942-12.664 8.876-14.86 13.622 -3.708 8.008-4.584 22.5-4.584 35h100 100C200 222.278 199.123 207.786 195.417 199.778z" fill="#e1b198" stroke-width="none" opacity="1" stroke="none"></path><path id="SvgjsPath2894" d="M159.156 184.058c24.342 3.542 34.586 8.708 37.794 50.721H200c0-12.5-0.877-26.992-4.583-35 -2.196-4.746-8.195-11.779-14.86-13.722 -8.239-2.403-26.837-5.308-33.733-6.923 -5.528-1.296-18.242-12.069-21.643-16.35 3.36 4.704 12.791 15.605 21.054 18.46C150.188 182.61 153.48 183.232 159.156 184.058zM53.766 181.244c8.263-2.854 17.693-13.756 21.054-18.46 -3.4 4.28-16.114 15.054-21.643 16.35 -6.896 1.615-25.494 4.619-33.733 7.022 -6.665 1.942-12.664 8.876-14.86 13.622 -3.706 8.008-4.583 22.5-4.583 35h3.05c3.188-41.744 13.475-47.183 37.794-50.721C46.52 183.232 49.813 182.61 53.766 181.244z" fill="#f0cdba" stroke-width="none" opacity="1" stroke="none"></path><path id="SvgjsPath2895" d="M95.646 197.62c0 0-5.074-1.609-7.083-2.379 -10.449-4.009-44.395-6.607-44.395-6.607s35.754 1.419 43.644 2.779c-0.458-4.767-3.017-20.004-3.017-20.004s5.149 16.815 6.409 21.057C91.878 194.734 95.646 197.62 95.646 197.62zM106.445 196.278c-0.089 0.073-0.191 0.168-0.302 0.268C106.256 196.461 106.358 196.372 106.445 196.278zM95.646 197.62c0 0 2.893 2.992 4.347 3.03 1.91 0.051 4.828-2.899 6.151-4.104 -1.265 0.957-4.159 1.391-5.31 1.436C99.504 198.033 95.646 197.62 95.646 197.62zM116.664 190.101c-1.545 0.248-4.386 0.789-4.386 0.789l2.287-14.89c-0.646 3.071-4.474 16.211-8.12 20.278 1.91-1.616 6.158-2.391 8.324-2.704 10.236-1.484 10.232-1.483 41.062-4.94C155.831 188.634 126.76 188.479 116.664 190.101z" fill="#d29779" stroke-width="none" opacity="1" stroke="none"></path><path id="SvgjsPath2896" d="M195.417 199.778c-2.196-4.746-8.195-11.779-14.86-13.722 -8.239-2.403-26.837-5.308-33.733-6.923 -5.528-1.296-16.662-11.294-20.564-14.65 -0.7-0.6-1.273-1.839-1.287-2.76 -0.139-10.864 4.195-39.724 4.195-39.724H100 70.833c0 0 4.334 28.859 4.193 39.724 -0.011 0.921-0.587 2.16-1.285 2.76 -3.902 3.356-15.036 13.354-20.564 14.65 -6.897 1.615-25.495 4.619-33.733 7.022 -6.667 1.942-12.664 8.876-14.86 13.622 -3.708 8.008-4.584 22.5-4.584 35h100 100C200 222.278 199.123 207.786 195.417 199.778z" fill="none" stroke="#b36a43" stroke-width="1.5" opacity="1"></path></g><g id="svga-group-chinshadow-single"><path id="SvgjsPath3050" d="M117.136 169.742c2.515-1.069 5.217-3.028 7.927-5.519 -0.494-0.746-0.828-1.684-0.841-2.49 -0.093-7.296 1.775-22.369 3.054-31.753 -15.779-1.925-38.771-1.917-54.549 0.014 1.278 9.384 3.145 24.446 3.05 31.738 -0.01 0.789-0.348 1.735-0.84 2.485 2.712 2.493 5.416 4.454 7.932 5.524C90.312 172.907 109.693 172.907 117.136 169.742z" fill="url(#SvgjsLinearGradient3051)" opacity="1"></path></g><g id="svga-group-clothes-single" ><path id="SvgjsPath3798" d="M111.806 235.888c-19.135 0-41.455-0.074-68.233-0.229l-23.679-0.128c-14.298-0.078-15.141-0.094-16.887-0.094l-4.899 0.007c-4.571-41.875 14.41-52.87 43.762-56.708 7.789-1.097 15.449-3.097 21.459-6.972 16.327 22.243 64.811 17.562 73.103-0.629 1.39 0.53 2.539 1.215 3.977 1.734 4.666 3.433 11.072 5.836 17.628 6.199 26.008 1.441 44.419 12.996 44.057 54.64 0.003 0.165 0.004 1.175-0.013 1.49 -12.513 0-17.206 0.121-27.034 0.262 -13.331 0.19-29.923 0.427-63.229 0.427C111.813 235.888 111.81 235.888 111.806 235.888z" fill="#39557e" stroke-width="none" opacity="1"></path><path id="SvgjsPath3799" d="M201.055 234.64c-0.41-7.385-4.064-28.058-10.36-37.541 -12.482-18.805-42.26-12.206-49.132-19.693 -4.986 10.159-24.975 16.595-31.594 17.54 19.181-6.36 27.237-10.959 30.42-21.87 6.405 8.33 41.074 1.971 54.717 24.331C199.101 203.954 202.9 224.793 201.055 234.64zM55.811 177.628c1.357-0.315 2.034-1.249 3.381-1.614l-1.426-1.891c-9.049 7.052-42.909 2.645-54.519 24.036 -3.659 6.741-6.127 22.788-4.192 36.439 0.537-8.384 0.799-26.314 7.095-35.798 11.324-17.06 31.974-12.553 47.619-19.775 6.983 8.6 17.888 12.828 28.984 14.577C68.832 189.971 60.85 183.84 55.811 177.628z" fill="#4e688d" stroke-width="none" opacity="1"></path><path id="SvgjsPath3800" d="M135.31 173.244c-5.532 11.514-47.35 24.923-70.93 0.879 -1.466 0.622-5.852 2.112-5.852 2.112 17.176 23.386 67.511 23.534 80.909-0.114C139.378 176.098 136.672 173.936 135.31 173.244z" fill="#27446f" stroke-width="none" opacity="1"></path><path id="SvgjsPath3801" d="M136.38 171.002c-9.413 18.822-58.397 21.485-73.012 0.632 -5.337 1.578-10.469 4.941-15.636 5.782C16.812 182.021-6.046 184.335-2 235.552c9.94 0-6.611-0.065 45.571 0.215 123.59 0.71 119.562-0.461 158.606-0.461 0.029-0.14 0.015-1.452 0.021-1.596 2.096-56.436-30.852-53.104-53.12-56.995 -3.144-0.718-6.066-2.773-8.635-3.945C139.024 172.121 137.818 171.538 136.38 171.002zM63.014 172.265c12.974 23.392 64.219 18.699 74.113 0.101 1.2 0.504 1.507 0.704 2.898 1.197 -10.248 21.489-60.942 28.337-81.677 1.163C58.494 174.685 61.552 172.813 63.014 172.265zM-0.845 234.778c-2.421-26.431 1.797-48.043 32.78-53.345 10.276-1.896 16.557-1.962 25.384-5.794 16.763 27.405 72.098 23.158 83.598-1.305 1.652 1.409 4.228 3.03 7.405 3.785 18.098 4.299 54.838-0.894 52.898 56.658C147.163 234.075 102.355 232.433-0.845 234.778z" fill="#0c2850" stroke-width="none" opacity="1"></path></g><g id="svga-group-head" ><g id="svga-group-ears-left" ><path id="SvgjsPath3802" d="M46.778 83.613c-2.623-1.48-8.575-8.52-11.138-7.517 -1.655 0.646-2.377 5.504-2.638 7.47 -0.333 2.525-0.929 7.711-0.328 10.185 0.725 2.985 3.631 8.507 5.37 11.027 1.468 2.122 5.211 5.797 6.407 8.088 0.759 1.454 1.493 5.373 4.083 5.12 1.674-0.164 5.537-3.072 5.744-4.452C55.406 106.057 51.943 86.528 46.778 83.613z" fill="#e1b198" stroke="#b36a43" stroke-width="1.5" opacity="1"></path><path id="SvgjsPath3803" d="M43.313 99.76c-0.125-0.556 0.006-1.491 0.133-2.395 0.115-0.824 0.224-1.601 0.158-2.151 -0.251-2.06-1.66-5.975-2.578-8.097 -1.059-2.44-2.771-5.515-4.919-6.307 -0.888-0.33-1.473 0.063-1.813 0.461 -0.248 0.292-0.305 0.636-0.223 0.676 0.082 0.041 0.266-0.244 0.535-0.512 0.219-0.219 0.542-0.407 0.983-0.368 -0.178 1.026-1.091 6.582-0.696 10.369 0.311 2.978 1.489 5.202 1.673 5.536 0.028 0.352 0.073 0.695 0.139 1.028 0.869 4.347 4.648 9.29 5.963 10.908 0.243 0.298 0.496 0.476 0.56 0.404 0.062-0.074-0.087-0.368-0.33-0.668 -1.298-1.609-5.042-6.533-5.879-10.728 -0.89-4.45 2.167-11.048 2.849-12.443 0.348 0.655 0.643 1.285 0.87 1.809 0.179 0.412 0.378 0.894 0.581 1.414 -0.402 0.729-3.211 6.042-2.187 10.295 0.38 1.568 2.088 3.589 3.223 4.143 0.624 0.306 0.859 0.761 1.13 1.288 0.314 0.613 0.673 1.307 1.708 1.81 0.211 0.101 0.402 0.144 0.571 0.144 0.293 0 0.515-0.126 0.679-0.281 0.017 0.268 0.016 0.611 0.007 0.928 -0.01 0.411 0.041 0.747 0.129 0.756 0.088 0.008 0.182-0.318 0.192-0.726 0.016-0.503 0.013-1.125-0.067-1.422 -0.232-0.877-0.942-1.867-1.694-2.915C44.27 101.685 43.504 100.618 43.313 99.76zM36.538 95.905c-2.035-6.825 0-13.093 0.458-14.029 0.795 0.785 2.108 2.213 2.679 3.239C39.258 85.938 36.623 91.315 36.538 95.905zM45.318 105.891c-0.938-0.456-1.253-1.067-1.557-1.657 -0.275-0.535-0.56-1.087-1.281-1.44 -0.157-0.077-0.33-0.193-0.505-0.328 -2.324-5.988 0.254-8.606 0.899-9.142 0.199 0.731 0.346 1.403 0.411 1.941 0.061 0.495-0.05 1.28-0.156 2.041 -0.132 0.942-0.268 1.916-0.127 2.546 0.211 0.94 0.999 2.038 1.76 3.1 0.677 0.943 1.373 1.915 1.609 2.708C46.271 105.818 45.949 106.195 45.318 105.891z" fill="#b36a43" stroke-width="none" opacity="1" stroke="none"></path></g><g id="svga-group-ears-right" ><path id="SvgjsPath3804" d="M152.961 83.613c2.623-1.48 8.574-8.52 11.137-7.517 1.656 0.646 2.379 5.504 2.639 7.47 0.334 2.525 0.928 7.711 0.328 10.185 -0.725 2.985-3.631 8.507-5.371 11.027 -1.467 2.122-5.211 5.797-6.406 8.088 -0.76 1.454-1.492 5.373-4.084 5.12 -1.674-0.164-5.535-3.072-5.744-4.452C144.332 106.057 147.795 86.528 152.961 83.613z" fill="#e1b198" stroke="#b36a43" stroke-width="1.5" opacity="1"></path><path id="SvgjsPath3805" d="M154.729 102.716c-0.752 1.047-1.463 2.038-1.695 2.915 -0.078 0.297-0.082 0.919-0.066 1.422 0.012 0.407 0.105 0.733 0.193 0.726 0.088-0.009 0.139-0.345 0.129-0.756 -0.01-0.316-0.01-0.66 0.006-0.928 0.164 0.155 0.387 0.281 0.68 0.281 0.168 0 0.359-0.043 0.57-0.144 1.035-0.503 1.395-1.196 1.709-1.81 0.271-0.527 0.506-0.982 1.131-1.288 1.133-0.554 2.842-2.575 3.223-4.143 1.023-4.253-1.785-9.566-2.188-10.295 0.203-0.52 0.402-1.002 0.582-1.414 0.225-0.524 0.521-1.154 0.869-1.809 0.682 1.395 3.738 7.993 2.848 12.443 -0.838 4.195-4.582 9.118-5.879 10.728 -0.242 0.3-0.393 0.594-0.33 0.668 0.064 0.071 0.318-0.106 0.561-0.404 1.314-1.618 5.094-6.561 5.963-10.908 0.066-0.333 0.111-0.677 0.139-1.028 0.184-0.334 1.363-2.558 1.674-5.536 0.395-3.788-0.518-9.343-0.695-10.369 0.441-0.039 0.764 0.149 0.982 0.368 0.268 0.268 0.453 0.552 0.535 0.512 0.08-0.041 0.023-0.384-0.223-0.676 -0.342-0.397-0.926-0.791-1.813-0.461 -2.148 0.792-3.861 3.867-4.92 6.307 -0.92 2.123-2.326 6.037-2.578 8.097 -0.066 0.55 0.043 1.328 0.158 2.151 0.127 0.904 0.256 1.839 0.133 2.395C156.234 100.618 155.469 101.685 154.729 102.716zM160.064 85.115c0.57-1.026 1.883-2.455 2.678-3.239 0.457 0.936 2.494 7.204 0.459 14.029C163.115 91.315 160.48 85.938 160.064 85.115zM153.367 105.66c0.236-0.793 0.932-1.765 1.609-2.708 0.762-1.063 1.549-2.16 1.76-3.1 0.141-0.631 0.006-1.604-0.127-2.546 -0.105-0.76-0.217-1.546-0.156-2.041 0.066-0.539 0.213-1.21 0.412-1.941 0.645 0.536 3.223 3.154 0.898 9.142 -0.176 0.134-0.348 0.25-0.504 0.328 -0.723 0.353-1.008 0.905-1.281 1.44 -0.305 0.59-0.619 1.201-1.559 1.657C153.789 106.195 153.467 105.818 153.367 105.66z" fill="#b36a43" stroke-width="none" opacity="1" stroke="none"></path></g><g id="svga-group-faceshape-wrap" ><g id="svga-group-faceshape-single" ><path id="SvgjsPath3047" d="M144.736 127.176c-4.549 9.887-17.57 28.302-27.601 32.566 -7.442 3.165-26.824 3.165-34.267 0 -10.029-4.265-23.05-22.68-27.601-32.566 -5.29-11.491-14.118-48.623-14.13-48.677 -1.3-4.996-1.996-10.239-2.004-15.645C39.082 28.806 66.289 1.169 99.907 1.116c33.621-0.053 60.913 27.495 60.963 61.543 0.009 5.408-0.669 10.653-1.952 15.653C158.901 78.365 150.045 115.641 144.736 127.176z" fill="#e1b198" stroke-width="none" opacity="1" stroke="none"></path><path id="SvgjsPath3048" d="M110.152 1.984c26.994 6.347 47.097 30.857 47.052 60.124 -0.009 5.407-0.704 10.65-2.004 15.646 -0.012 0.054-9.158 37.218-14.396 48.677 -4.417 9.659-16.244 27.271-25.867 31.821 -3.169 1.499-11.439 1.855-14.935 1.855 -3.494 0-11.765-0.356-14.933-1.855 -9.623-4.55-21.451-22.162-25.867-31.821 -5.239-11.459-14.385-48.623-14.396-48.677 -1.3-4.995-1.996-10.239-2.004-15.646C42.756 32.841 62.857 8.331 89.853 1.984 61.03 6.885 39.087 32.276 39.134 62.854c0.008 5.406 0.704 10.649 2.004 15.645 0.012 0.054 8.781 37.213 14.13 48.677 4.602 9.862 17.738 27.917 27.601 32.566 3.671 1.732 13.088 2.374 17.134 2.374 4.043 0 13.464-0.643 17.133-2.374 9.862-4.649 23-22.704 27.601-32.566 5.35-11.464 14.119-48.623 14.13-48.677 1.3-4.996 1.996-10.239 2.004-15.645C160.918 32.276 138.975 6.885 110.152 1.984z" fill="#d9a488" stroke-width="none" opacity="1" stroke="none"></path><path id="SvgjsPath3049" d="M144.736 127.176c-4.549 9.887-17.57 28.302-27.601 32.566 -7.442 3.165-26.824 3.165-34.267 0 -10.029-4.265-23.05-22.68-27.601-32.566 -5.29-11.491-14.118-48.623-14.13-48.677 -1.3-4.996-1.996-10.239-2.004-15.645C39.082 28.806 66.289 1.169 99.907 1.116c33.621-0.053 60.913 27.495 60.963 61.543 0.009 5.408-0.669 10.653-1.952 15.653C158.901 78.365 150.045 115.641 144.736 127.176z" fill="none" stroke="#b36a43" stroke-width="1.5" opacity="1"></path></g></g><g id="svga-group-mouth-single" ><path id="SvgjsPath3059" d="M100.34 141.925c-1.526 0-2.998-0.193-3.9-0.547 -0.257-0.102-0.384-0.392-0.283-0.648 0.101-0.257 0.39-0.383 0.648-0.283 1.664 0.653 5.855 0.676 7.704-0.193 0.251-0.117 0.548-0.01 0.665 0.239 0.118 0.25 0.011 0.548-0.239 0.665C103.815 141.684 102.044 141.925 100.34 141.925zM115.025 133.444c0.398-0.171 0.584-0.632 0.413-1.031s-0.635-0.583-1.031-0.413c-11.666 4.992-28.742 0.338-28.912 0.292 -0.417-0.116-0.852 0.127-0.968 0.546 -0.116 0.418 0.128 0.851 0.546 0.968 0.463 0.128 7.692 2.1 16.034 2.1C105.727 135.905 110.685 135.301 115.025 133.444z" fill="#b36a43" stroke-width="none" opacity="1" stroke="none"></path></g><g id="svga-group-eyes-left" ><g id="svga-group-eyesback-left"><path id="SvgjsPath3686" d="M76.732 78.383c4.587 0.679 7.931 3.488 10.773 7.94 0.004 0.005 0.013 0.004 0.018 0.008 0.007 0.027 0.021 0.053 0.026 0.08 0.255 1.007-0.816 1.819-2.155 2.438 -4.771 0.609-9.359 1.489-14.194 0.87 -9.681-1.241-9.855-5.509-10.326-6.629 -0.252-1.101-0.325-1.417-0.311-2.473 2.332-1.366 4.043-1.647 5.854-2.005C68.541 78.194 73.268 77.868 76.732 78.383z" fill="url(#SvgjsRadialGradient3687)" opacity="1"></path></g><g id="svga-group-eyesiriswrapper-left" transform="translate(0.25 0)"><g id="svga-group-eyesiriscontrol-left" ><g id="svga-group-eyesiris-left" ><path id="SvgjsPath3744" d="M80 84c0 3.313-2.687 5.999-6 5.999S68 87.313 68 84c0-3.316 2.687-6.001 6-6.001S80 80.685 80 84z" fill="#3e4442" stroke-width="none" opacity="1" stroke="none"></path><path id="SvgjsPath3745" d="M70.512 86.805c0.875-0.072 0.1-0.306 0.1-0.306 -0.433-0.233-1.248-0.592-1.248-0.921 0-1.031 1.414-1.299-0.034-1.705 -1.504-1.38 1.167-1.352 1.147-1.398 -0.975-2.376 0.299-1.071 0.835-1.773 1.988-2.599 0.554 0.267 1.633 0 0.391-0.096-0.78-1.531 0.034-1.33 0.539 0.132 0.662 0.58 0.662 0.58 0.393-0.077 1.008-0.682 1.008-0.682 0.749 0.226 1.275 1.29 1.043 1.091 0.368-0.045 0.884-0.221 1.286-0.341 0 0 0.07-0.239 0.139-0.033 0.917 2.661 3.284 2.47 0.559 3.24 0 0-0.176 0 0.382 0.442 2.71 2.164-2.102 1.495 0.451 2.49 0.104-0.104-1.53 0.965-1.53 1.261 0 0.501-1.042 1.818-1.946 1.3 -0.504-0.288-0.581 0.6-0.877 0.19 -0.581-0.803-1.742-0.035-1.313-0.773 0.634-0.521-0.654 0.204-0.904 0.204 -0.828 0 1.083-2.783 3.894-0.715 0.822 0.602-0.864-1.433 0.625-1.433 0.149 0.049 0.104-0.521 0.104-0.682 -0.774-0.151 1.39-0.003 1.39-1.262 0.137 0.027 0.509-0.35-1.635 0 0 0-0.068-0.75-0.034-0.886 0.11-0.438 1.214-0.298 0.904-0.75 0-0.001-0.799-1.604-0.799-1.604 -2.573-0.414-1.102-0.672-2.711-0.341 -0.076 0.378-3.445 1.984-3.338 2.729 0.1 0.702 2.115 0.938 0.208 2.182C73.405 91.051 68.437 85.454 70.512 86.805z" fill="#535353" stroke-width="none" opacity="1" stroke="none"></path><path id="SvgjsPath3746" d="M74 78.749l0.171 4.393 1.837-3.993 -1.523 4.123 3.227-2.985 -2.985 3.226 4.124-1.523 -3.992 1.839 4.392 0.17 -4.392 0.17 3.992 1.839 -4.124-1.523 2.985 3.226 -3.227-2.985 1.523 4.123 -1.837-3.993L74 89.249l-0.171-4.393 -1.838 3.993 1.522-4.123 -3.226 2.985 2.985-3.226 -4.124 1.523 3.992-1.839 -4.39-0.17 4.39-0.17 -3.992-1.839 4.124 1.523 -2.985-3.226 3.226 2.985 -1.522-4.123 1.838 3.993L74 78.749z" fill="#1b2522" stroke-width="none" opacity="1" stroke="none"></path><path id="SvgjsPath3747" d="M74.796 80.067l-0.539 3.315 1.981-2.711 -1.766 2.857 2.87-1.748 -2.725 1.964 3.319-0.515L74.668 84l3.266 0.794 -3.317-0.538 2.712 1.982 -2.858-1.765 1.748 2.869 -1.964-2.725 0.516 3.319 -0.771-3.27 -0.795 3.264 0.539-3.315 -1.984 2.711 1.768-2.857 -2.869 1.748 2.725-1.964 -3.319 0.516 3.269-0.771 -3.264-0.793 3.315 0.537 -2.712-1.982 2.858 1.765 -1.747-2.869 1.964 2.725 -0.516-3.318 0.772 3.27L74.796 80.067z" fill="#0e1613" stroke-width="none" opacity="1" stroke="none"></path><path id="SvgjsPath3748" d="M76.25 84c0 1.243-1.008 2.25-2.25 2.25s-2.25-1.007-2.25-2.25 1.008-2.25 2.25-2.25S76.25 82.757 76.25 84z" fill="#000000" stroke-width="none" opacity="0.9"></path><path id="SvgjsPath3749" d="M71.637 88.311c-0.331 0.332-0.985 0.215-1.46-0.261 -0.476-0.475-0.593-1.129-0.261-1.461 0.331-0.331 0.985-0.214 1.46 0.261C71.852 87.326 71.969 87.979 71.637 88.311z" fill="#ffffff" stroke-width="none" opacity="0.7"></path><path id="SvgjsPath3750" d="M78.806 82.818c-0.496 0.496-1.697 0.1-2.682-0.886 -0.986-0.986-1.382-2.187-0.886-2.683 0.496-0.496 1.697-0.1 2.682 0.886C78.906 81.122 79.302 82.322 78.806 82.818z" fill="#ffffff" stroke-width="none" opacity="0.9"></path></g></g></g><g id="svga-group-eyesfront-left"><path id="SvgjsPath3711" d="M55.112 83.583c3.224 11.315 7.475 23.313 17.685 23.669s22.135-7.239 22.29-22.238c0.173-16.767-10.474-23.381-20.684-23.737S50.307 66.714 55.112 83.583zM60.875 83.09c-0.252-1.101-0.325-1.417-0.311-2.473 2.027-1.21 4.04-1.547 5.851-1.905 2.123-0.418 6.853-0.845 10.317-0.329 4.587 0.679 7.931 3.488 10.773 7.94 0.004 0.005 0.013 0.004 0.018 0.008 0.007 0.027 0.021 0.053 0.026 0.08 0.255 1.007-0.816 1.819-2.155 2.438 -4.771 0.609-9.359 1.489-14.194 0.87C61.519 88.478 61.345 84.21 60.875 83.09z" fill="#e1b198" stroke-width="none" opacity="1" stroke="none"></path><path id="SvgjsPath3712" d="M74.225 95.171c9.256 1.401 17.847-3.01 19.186-9.859 1.34-6.849-5.072-13.537-14.329-14.94 -9.258-1.399-17.845 3.012-19.185 9.862C58.557 87.082 64.967 93.766 74.225 95.171zM60.563 80.617c2.125-1.141 4.04-1.547 5.851-1.905 2.123-0.418 6.853-0.845 10.317-0.329 4.587 0.679 7.931 3.488 10.773 7.94 0.004 0.005 0.013 0.004 0.018 0.008 0.007 0.027 0.021 0.053 0.026 0.08 0.255 1.007-0.816 1.819-2.155 2.438 -4.771 0.609-9.359 1.489-14.194 0.87 -9.681-1.241-9.855-5.509-10.326-6.629C60.622 81.989 60.55 81.672 60.563 80.617z" fill="url(#SvgjsRadialGradient3713)" opacity="1"></path><path id="SvgjsPath3717" d="M60.875 83.09c-0.252-1.101-0.325-1.417-0.311-2.473 2.092-1.175 4.04-1.547 5.851-1.905 2.123-0.418 6.853-0.845 10.317-0.329 4.587 0.679 7.931 3.488 10.773 7.94 0.004 0.005 0.013 0.004 0.018 0.008 0.007 0.027 0.021 0.053 0.026 0.08 0.255 1.007-0.816 1.819-2.155 2.438 -4.771 0.609-9.359 1.489-14.194 0.87C61.519 88.478 61.345 84.21 60.875 83.09z" fill="url(#SvgjsRadialGradient3718)" opacity="1"></path><path id="SvgjsPath3721" d="M76.327 75.748c3.294 0.539 6.505 2.054 9.48 3.945 0.637 0.404 1.366 0.865 2.521 1.451 -0.828-0.188-1.594-0.617-2.309-1.011 0.736 0.698 1.422 1.529 1.982 2.334 -2.521-3.159-7.297-5.538-11.36-6.349 -3.902-0.779-10.989-0.264-16.251 2.042C65.208 75.449 72.237 75.08 76.327 75.748z" fill="#b36a43" stroke-width="none" opacity="1" stroke="none"></path><path id="SvgjsPath3722" d="M87.508 86.277c-2.847-4.34-6.193-7.082-10.781-7.747 -4.833-0.705-11.271-0.221-15.034 1.843 -0.308 0.169-1.607 1.249-1.401 0.117 0.874-1.167 4.322-2.523 5.993-2.928C85.03 73.019 88.582 87.854 87.508 86.277zM60.646 82.841c-0.716 2.063 0.861 6.654 10.145 7.503 6.595 0.602 15.767-1.75 14.634-1.613 -4.779 0.589-9.375 1.449-14.219 0.839C60.224 88.19 61.468 83.023 60.646 82.841z" fill="#2a150e" stroke-width="none" opacity="1" stroke="none"></path></g></g><g id="svga-group-eyes-right" ><g id="svga-group-eyesback-right"><path id="SvgjsPath3694" d="M122.867 78.383c-4.586 0.679-7.931 3.488-10.773 7.94 -0.004 0.005-0.012 0.004-0.018 0.008 -0.006 0.027-0.02 0.053-0.025 0.08 -0.256 1.007 0.815 1.819 2.154 2.438 4.771 0.609 9.359 1.489 14.194 0.87 9.681-1.241 9.855-5.509 10.325-6.629 0.253-1.101 0.325-1.417 0.312-2.473 -2.331-1.366-4.043-1.647-5.854-2.005C131.059 78.194 126.332 77.868 122.867 78.383z" fill="url(#SvgjsRadialGradient3695)" opacity="1"></path></g><g id="svga-group-eyesiriswrapper-right" transform="translate(-0.25 0)"><g id="svga-group-eyesiriscontrol-right" ><g id="svga-group-eyesiris-right" ><path id="SvgjsPath3751" d="M132,83.999c0,3.316-2.684,6-6,6s-6-2.684-6-6s2.684-6,6-6S132,80.683,132,83.999z" fill="#3e4442" stroke-width="none" opacity="1" stroke="none"></path><path id="SvgjsPath3752" d="M122.508 86.806c0.879-0.076 0.105-0.305 0.105-0.305 -0.434-0.234-1.254-0.592-1.254-0.926 0-1.031 1.418-1.295-0.023-1.705 -1.512-1.377 1.16-1.348 1.137-1.395 -0.973-2.379 0.305-1.072 0.844-1.775 1.98-2.596 0.551 0.27 1.629 0 0.387-0.094-0.785-1.529 0.035-1.33 0.539 0.135 0.656 0.58 0.656 0.58 0.398-0.076 1.008-0.68 1.008-0.68 0.75 0.223 1.277 1.289 1.043 1.09 0.375-0.047 0.891-0.223 1.289-0.34 0 0 0.07-0.24 0.141-0.035 0.914 2.66 3.281 2.473 0.563 3.24 0 0-0.176 0 0.375 0.439 2.707 2.168-2.098 1.494 0.457 2.49 0.105-0.1-1.535 0.967-1.535 1.266 0 0.498-1.043 1.816-1.945 1.295 -0.504-0.287-0.586 0.604-0.879 0.193 -0.574-0.803-1.746-0.035-1.313-0.773 0.633-0.521-0.656 0.205-0.902 0.205 -0.832 0 1.078-2.783 3.891-0.715 0.82 0.598-0.867-1.436 0.633-1.436 0.141 0.047 0.105-0.521 0.105-0.68 -0.785-0.152 1.383-0.006 1.383-1.266 0.141 0.029 0.516-0.346-1.629 0 0 0-0.07-0.75-0.035-0.885 0.105-0.439 1.207-0.299 0.902-0.75l-0.797-1.605c-2.578-0.41-1.102-0.668-2.719-0.34 -0.07 0.381-3.445 1.986-3.34 2.73 0.105 0.703 2.121 0.938 0.211 2.18C125.402 91.054 120.434 85.452 122.508 86.806z" fill="#535353" stroke-width="none" opacity="1" stroke="none"></path><path id="SvgjsPath3753" d="M126 78.749l0.176 4.395 1.828-3.996 -1.523 4.125 3.234-2.988 -2.988 3.229 4.125-1.523 -3.996 1.84 4.395 0.17 -4.395 0.17 3.996 1.84 -4.125-1.523 2.988 3.229 -3.234-2.988 1.523 4.125 -1.828-3.996L126 89.249l-0.176-4.395 -1.84 3.996 1.523-4.125 -3.223 2.988 2.988-3.229 -4.125 1.523 3.996-1.84 -4.395-0.17 4.395-0.17 -3.996-1.84 4.125 1.523 -2.988-3.229 3.223 2.988 -1.523-4.125 1.84 3.996L126 78.749z" fill="#1b2522" stroke-width="none" opacity="1" stroke="none"></path><path id="SvgjsPath3754" d="M126.797 80.067l-0.539 3.316 1.98-2.713 -1.77 2.859 2.871-1.752 -2.719 1.969 3.316-0.516 -3.27 0.768 3.27 0.797 -3.316-0.539 2.707 1.98 -2.859-1.764 1.746 2.871 -1.957-2.725 0.516 3.316L126 84.667l-0.797 3.264 0.539-3.316 -1.98 2.713 1.77-2.859 -2.871 1.752 2.719-1.969 -3.316 0.516 3.27-0.768 -3.27-0.797 3.316 0.539 -2.707-1.98 2.859 1.764 -1.746-2.871 1.957 2.725 -0.516-3.316 0.773 3.27L126.797 80.067z" fill="#0e1613" stroke-width="none" opacity="1" stroke="none"></path><path id="SvgjsPath3755" d="M128.25 83.999c0 1.242-1.008 2.25-2.25 2.25s-2.25-1.008-2.25-2.25 1.008-2.25 2.25-2.25S128.25 82.757 128.25 83.999z" fill="#000000" stroke-width="none" opacity="0.9"></path><path id="SvgjsPath3756" d="M123.633 88.312c-0.328 0.328-0.984 0.217-1.453-0.264 -0.48-0.475-0.598-1.125-0.258-1.459 0.328-0.328 0.984-0.211 1.453 0.264C123.855 87.327 123.973 87.978 123.633 88.312z" fill="#ffffff" stroke-width="none" opacity="0.7"></path><path id="SvgjsPath3757" d="M130.805 82.815c-0.492 0.498-1.699 0.105-2.684-0.885 -0.984-0.984-1.383-2.186-0.879-2.678 0.492-0.498 1.688-0.105 2.672 0.885C130.91 81.122 131.297 82.323 130.805 82.815z" fill="#ffffff" stroke-width="none" opacity="0.9"></path></g></g></g><g id="svga-group-eyesfront-right"><path id="SvgjsPath3732" d="M125.197 61.277c-10.211 0.356-20.857 6.97-20.685 23.737 0.154 15 12.079 22.595 22.29 22.238 10.21-0.356 16.187-17.323 17.685-23.669C148.517 66.512 135.407 60.921 125.197 61.277zM128.399 89.719c-4.835 0.619-9.423-0.261-14.194-0.87 -1.339-0.618-2.41-1.43-2.154-2.438 0.006-0.027 0.02-0.053 0.025-0.08 0.006-0.004 0.014-0.003 0.018-0.008 2.843-4.452 6.188-7.261 10.773-7.94 3.465-0.516 8.195-0.089 10.318 0.329 1.811 0.357 3.824 0.694 5.851 1.905 0.014 1.055-0.059 1.372-0.312 2.473C138.255 84.21 138.08 88.478 128.399 89.719z" fill="#e1b198" stroke-width="none" opacity="1" stroke="none"></path><path id="SvgjsPath3733" d="M139.703 80.234c-1.34-6.85-9.928-11.261-19.186-9.862 -9.257 1.403-15.669 8.091-14.328 14.94 1.339 6.849 9.93 11.26 19.186 9.859C134.633 93.766 141.043 87.082 139.703 80.234zM138.725 83.09c-0.47 1.121-0.645 5.388-10.325 6.629 -4.835 0.619-9.423-0.261-14.194-0.87 -1.339-0.618-2.41-1.43-2.154-2.438 0.006-0.027 0.02-0.053 0.025-0.08 0.006-0.004 0.014-0.003 0.018-0.008 2.843-4.452 6.188-7.261 10.773-7.94 3.465-0.516 8.195-0.089 10.318 0.329 1.811 0.357 3.727 0.764 5.851 1.905C139.05 81.672 138.978 81.989 138.725 83.09z" fill="url(#SvgjsRadialGradient3734)" opacity="1"></path><path id="SvgjsPath3738" d="M138.725 83.09c0.253-1.101 0.325-1.417 0.312-2.473 -2.092-1.175-4.04-1.547-5.851-1.905 -2.123-0.418-6.854-0.845-10.318-0.329 -4.586 0.679-7.931 3.488-10.773 7.94 -0.004 0.005-0.012 0.004-0.018 0.008 -0.006 0.027-0.02 0.053-0.025 0.08 -0.256 1.007 0.815 1.819 2.154 2.438 4.771 0.609 9.359 1.489 14.194 0.87C138.08 88.478 138.255 84.21 138.725 83.09z" fill="url(#SvgjsRadialGradient3739)" opacity="1"></path><path id="SvgjsPath3742" d="M123.273 75.748c-3.295 0.539-6.506 2.054-9.48 3.945 -0.637 0.404-1.367 0.865-2.521 1.451 0.828-0.188 1.594-0.617 2.309-1.011 -0.736 0.698-1.422 1.529-1.982 2.334 2.521-3.159 7.297-5.538 11.359-6.349 3.902-0.779 10.989-0.264 16.252 2.042C134.391 75.449 127.362 75.08 123.273 75.748z" fill="#b36a43" stroke-width="none" opacity="1" stroke="none"></path><path id="SvgjsPath3743" d="M133.314 77.563c1.672 0.405 5.119 1.761 5.994 2.928 0.205 1.132-1.094 0.052-1.402-0.117 -3.764-2.064-10.201-2.548-15.033-1.843 -4.588 0.665-7.936 3.407-10.781 7.747C111.018 87.854 114.57 73.019 133.314 77.563zM128.395 89.57c-4.844 0.61-9.439-0.25-14.219-0.839 -1.134-0.137 8.038 2.215 14.633 1.613 9.284-0.849 10.861-5.44 10.145-7.503C138.131 83.023 139.376 88.19 128.395 89.57z" fill="#2a150e" stroke-width="none" opacity="1" stroke="none"></path></g></g><g id="svga-group-facehighlight-single" ><path id="SvgjsPath2885" d="M141 113.974c0.035 22.622-18.292 40.994-40.938 41.025 -22.642 0.037-41.028-18.273-41.063-40.9 -0.035-22.62 18.292-41.064 40.937-41.1C122.579 72.964 140.967 91.349 141 113.974z" fill="url(#SvgjsRadialGradient2886)" opacity="1"></path><path id="SvgjsPath2889" d="M137.5 53.999c0 20.711-16.789 37.5-37.499 37.5 -20.711 0-37.501-16.789-37.501-37.5s16.79-37.5 37.501-37.5C120.711 16.499 137.5 33.288 137.5 53.999z" fill="url(#SvgjsRadialGradient2890)" opacity="1"></path></g><g id="svga-group-eyebrows-left" ><path id="SvgjsPath3758" d="M52.488 73.87c7.475-9.383 20.338-7.822 30.878-6.314 2.681 0.384 5.441 0.672 8.07 1.336 1.884 0.475 3.365 2.622 1.851 4.356 -0.708 0.825-2.253 0.672-3.207 0.652C77.459 73.645 63.193 66.387 52.488 73.87z" fill="#6b4e40" stroke-width="none" opacity="1" stroke="none"></path></g><g id="svga-group-eyebrows-right" ><path id="SvgjsPath3759" d="M147.577 73.49c-2.164-1.448-4.454-2.47-7.043-2.889 -9.497-1.54-27.586 4.79-32.341 3.45 -2.912-0.822-2.323-3.739-1.035-4.458 0.775-0.433 0.99-0.422 7.909-1.612C126.824 65.961 139.988 64.355 147.577 73.49z" fill="#6b4e40" stroke-width="none" opacity="1" stroke="none"></path></g><g id="svga-group-nose-single" ><path id="SvgjsPath3063" d="M99.979 120.982c-2.599-0.079-7.224-2.758-6.672-5.166 0.511-2.238 3.422 0.816 6.766 0.844 3.343 0.027 7.336-1.967 7.806 0.277C108.636 120.561 104.166 121.112 99.979 120.982z" fill="#d9a488" stroke-width="none" opacity="1" stroke="none"></path><path id="SvgjsPath3064" d="M105.793 119.62c0.21 0.275 0.572 0.275 0.797-0.002 0.231-0.277 0.243-0.727 0.027-1.001 -1.568-2.021-4.39 0.688-4.177 0.969C102.519 119.691 104.608 118.113 105.793 119.62zM94.106 114.477c0.329 2.148 1.012 5.016 6.507 6.519 -5.417-0.161-8.937-1.169-8.908-6.206 0.015-2.549 2.678-7.79 2.678-7.79S93.758 112.207 94.106 114.477z" fill="#b36a43" stroke-width="none" opacity="1" stroke="none"></path></g><g id="svga-group-beardwrap" ><g id="svga-group-beard-single" ><path id="SvgjsPath3786" d="M100,18.13L100,18.13L100,18.13L100,18.13z" fill="#2a232b" stroke-width="none" opacity="1"></path></g></g><g id="svga-group-mustache-single" ><path id="SvgjsPath3779" d="M100,18.13L100,18.13L100,18.13L100,18.13z" fill="#2a232b" stroke-width="none" opacity="1"></path></g><g id="svga-group-hair-front" ><path id="SvgjsPath3783" d="M44.974,94.895c-2.423-8.815-3.728-16.533-5.54-24.585l0.083-0.019c-0.686-1.689-3.162-15.06-3.185-15.204c-2.525-17.77,4.993-18.784,4.84-26.198c3.165,1.585,6.242,0.799,9.019-1.365c-2.918-1.499-1.997-1.736-5.872-4.095c2.731-0.472,4.326,0.165,6.646,0.454c-1.983-1.983-5.875-6.028-8.404-5.492l-0.165-0.354c3.661-2.857,8.548,3.091,12.954,1.48C55.483,3.144,79.417-0.256,85.242-2.689c7.755-2.951,15.856-9.441,21.553-10.021c-3.225,3.241-5.2,8.449-5.347,12.358c4.698-4.486,5.03-4.355,12.151-12.264c0,6.364-1.763,7.163-4.051,10.898c6.211-4.07,13.955-15.489,25.881-17.235l0.131,0.37c-4.298,2.532-7.624,6.804-9.898,12.708c2.257-2.726,5.451-5.683,8.986-6.218l0.133,0.369c-2.215,1.325-6.554,5.742-7.547,13.138c4.381-4.893,11.35-8.948,16.134-10.48l0.187,0.346c-4.392,3.573-6.153,9.828-7.146,15.146c3.08-4.58,4.872-5.624,8.747-7.548c-1.247,1.865-1.166,1.539-2.158,3.566c2.396,6.123,10.313,6.361,11.666,17.059c1.63-1.424,2.277-1.781,4.151-3.092l0.282,0.272c-1.408,2.187-2.569,6.06-3.342,8.652c2.78-2.123,7.073-3.687,10.096-4.778l0.211,0.328c-2.551,2.593-5.648,6.546-6.162,10.834c1-0.592,1.048-0.524,2.35-1.466c0,3.081,0.105,2.688,0.127,4.105c1.257-1.125,1.45-1.282,2.276-2.181c-0.183,32.362-1.845,25.912-6.317,48.466c-0.784,3.963-2.171,10.883-3.061,14.207l-6.049,1.039c1.87-22.394-0.093-17.512,1.267-31.604c2.012-20.779-14.804-37.812-37.025-32.237c-4.496,1.128-22.44,1.127-26.934,0c-24.547-6.163-33.391,8.18-36.026,33.278c-1.291,12.318-1.607,8.161,0.267,30.563L44.974,94.895z" fill="#6b4e40" stroke-width="none" opacity="1" stroke="none"></path><path id="SvgjsPath3784" d="M162.376,34.359c-0.021-1.418-0.127-1.024-0.127-4.105c-1.302,0.941-1.35,0.874-2.35,1.466c0.514-4.288,3.611-8.241,6.162-10.834l-0.211-0.328c-3.022,1.092-7.315,2.655-10.096,4.778c0.772-2.592,1.934-6.465,3.342-8.652l-0.282-0.272c-1.874,1.311-2.521,1.668-4.151,3.092c-1.353-10.697-9.27-10.936-11.666-17.059c0.992-2.027,0.911-1.701,2.158-3.566c-3.875,1.924-5.667,2.968-8.747,7.548c0.993-5.318,2.755-11.573,7.146-15.146l-0.187-0.346c-4.784,1.532-11.753,5.587-16.134,10.48c0.993-7.396,5.332-11.813,7.547-13.138l-0.133-0.369c-3.535,0.535-6.729,3.493-8.986,6.218c2.274-5.904,5.601-10.176,9.898-12.708l-0.131-0.37c-11.926,1.746-19.67,13.165-25.881,17.235c2.288-3.735,4.051-4.535,4.051-10.898c-7.121,7.909-7.453,7.778-12.151,12.264c0.146-3.909,2.122-9.118,5.347-12.358c-5.696,0.58-13.797,7.069-21.553,10.021C79.417-0.256,55.483,3.144,55.35,19.518c-4.406,1.611-9.293-4.337-12.954-1.48l0.165,0.354c2.529-0.537,6.421,3.508,8.404,5.492c-2.319-0.289-3.915-0.926-6.646-0.454c3.875,2.359,2.954,2.596,5.872,4.095c-2.777,2.164-5.854,2.95-9.019,1.365c0.153,7.415-7.366,8.429-4.84,26.198c0.023,0.144,2.499,13.515,3.185,15.204l-0.083,0.019c1.812,8.052,3.117,15.771,5.54,24.585L45,94.899c-0.661-16.442-11.02-39.816-4.941-54.788C40.852,38.156,43.92,33,43.92,33s9.627-1.264,10.08-5c0,0-2-1-3-2c2,1,2-2,4-1c0-2-3-1-3-3c2,0,4,0,6,2c-1-5,0-10,4-13C72,3,85,4,95-4c-1,5-2,10-2,15c6-3,8-9,13-13c1,4-1,9-1,13c3-7,7-14,16-16c-4,4-4,10-4,15c0-4,4-6,5-9c0,4,0,8,0,12c2-6,6-9,11-11c-4,4-3,8-4,13c3-3,7-4,10-7c3,6,1,11,1,17c1-5,6-8,9-12c1,5,1,10,0,15c1-3,3-5,4-8c0,4.86-0.668,9.062-1.98,13.142c1.255-1.452,3.304-2.111,3.98-4.142c0,4.325,0,7.904,0,12.027c0.58-1.192,2.29-1.608,3-3.027c-0.854,3.413-0.254,6.103-0.059,9.302c0.371-1.96,2.258-3.162,2.94-4.967c0.04-0.778,0.081-1.557,0.118-2.335c0.229,0.912,0.135,1.664-0.118,2.335c-0.912,17.771-2.593,35.516-6.256,52.628l0.648-0.111c0.89-3.324,2.276-10.244,3.061-14.207c4.473-22.554,6.135-16.104,6.317-48.466C163.826,33.078,163.633,33.235,162.376,34.359z" fill="#7a6155" stroke-width="none" opacity="1" stroke="none"></path><path id="SvgjsPath3785" d="M167.779,19.695c-4.949,0.834-8.406,2.438-11.05,4.25c0.385-1.005,2.193-6.67,4.14-9.05c-2.99,1.333-4.72,2.763-5.72,3.51c0-1.032-0.398-2.224-0.59-2.84c-0.189-0.515-0.348-1.117-1.271-2.62c-5.171-7.296-5.494-4.244-9.729-9.83c0.772-1.811,1.889-3.572,3.29-5.03c-3.908,0.555-5.965,2.075-8.44,4.51c-0.04,0.04-0.07,0.08-0.1,0.12c1.551-6.126,4.59-11.437,10.56-13.43c-7.384-0.268-16.525,5.192-21.12,10.64c1.984-6.381,4.646-9.421,8.601-12.25c-2.846-0.421-5.635,0.742-7.841,2.58c2.541-4.397,6.317-7.899,9.351-9.53c-0.431-0.01-0.94-0.04-1.5,0c-0.777-0.199-5.479,0.566-7.16,1.29c-8.329,3.252-14.389,10.822-16.99,13.28c1.916-3.098,2.01-5.298,1.66-8.52c-0.655,0.563-11.615,11.055-11.75,11.19c0.777-4.309,2.245-6.937,5.02-10.79c-4.947-0.926-17.332,7.217-25.01,9.39c-8.044,2.179-28.004,6.723-27.09,22.7c-4.295,0.819-10.584-6.077-13.88-0.29c2.646-1.57,6.151,2.21,8.59,4.37c-1-0.163-4.343-0.948-5.96,0.13c1.894,0.735,3.55,2.932,5.89,4.1c0.03,0.01,0.06,0.02,0.09,0.04c-2.139,1.128-4.667,2.034-6.99,1.39c-0.35-0.1-0.58-0.16-0.58-0.17c-0.27-0.12-0.56-0.24-0.87-0.38h-0.01l-0.01-0.01c-0.13-0.07-0.26-0.14-0.4-0.21c0.695,5.608-7.817,10.155-6.88,22.02c0.385,7.301,4.949,29.508,10.686,44.566l0.483,0.144c-2.392-8.626-3.777-16.74-5.569-24.701c-0.156,0-3.073-15.044-3.1-15.21c-2.506-17.631,4.994-18.91,4.85-25.84c3.121,1.561,6.532,0.436,9.18-1.73c-3.118-1.551-2.453-1.988-5.68-3.95c2.163-0.374,4.803,0.483,6.62,0.6c-2.346-2.346-6.299-6.51-8.98-5.94c3.568-2.785,8.497,3.271,13.03,1.46c0-16.383,23.723-19.635,29.77-22.16c7.271-2.766,16.283-9.476,20.939-9.95c-2.44,2.458-5.02,7.901-5.02,12.58c4.834-4.638,5.31-4.615,12.16-12.22c0,6.014-2.247,7.088-4.431,10.97c6.414-3.698,14.179-15.828,26.49-17.63c-5.154,3.037-8.435,8.325-10.41,13.97c2.352-3.059,5.8-6.53,9.63-7.11c-2.009,1.202-6.861,5.782-7.72,13.93c4.345-5.114,11.586-9.346,16.47-10.91c-4.605,3.748-6.368,10.371-7.39,16.22c1.687-2.573,3.357-4.897,5.97-6.54c0.011-0.01,0.03-0.02,0.04-0.02c1.029-0.699,0.76-0.509,2.521-1.39c-0.669,1-0.731,0.87-1.79,3.04c2.426,6.377,10.523,6.413,11.729,17.47c1.857-1.647,2.441-1.944,4.42-3.33c-1.542,2.394-2.784,6.768-3.55,9.32c2.905-2.485,8.279-4.33,10.54-5.15c-3,3.05-5.913,7.096-6.26,11.36c0.614-0.413,1.394-0.74,2.39-1.46c0,2.724,0.13,2.36,0.13,4.16c0.526-0.481,1.72-1.51,2.271-2.11c-0.196,31.716-1.88,25.564-6.311,47.91c-1.658,8.376-2.533,12.25-3.081,14.283l0.428-0.087c3.584-10.751,10.737-35.042,10.414-47.616c-0.033-4.7-1.059-14.5-1.11-15.5c-0.021,0.018-2.084,1.97-2.11,1.97c0-0.511-0.21-2.685-0.21-3.87c-0.353,0.271-1.095,0.778-2.09,1.36C161.758,26.981,163.857,24.394,167.779,19.695z" fill="#3d2012" stroke-width="none" opacity="1" stroke="none"></path></g><g id="svga-group-glasses-single" ><path id="SvgjsPath3767" d="M52.7 78.99c11.69 3.22 28.34-0.15 40.03 7.14 -0.08 0.44-0.16 0.87-0.25 1.31 -0.64 2.91-3.23 4.82-6.36 5.38 -8.44 1.51-22.57 1.32-30.84 0.74 -1.19-0.08-2.16-0.9-2.36-2C52.11 87.2 51.8 83.54 52.7 78.99zM106.69 80.35c0.05 2.48 0.32 4.73 0.83 7.1 0.63 2.91 3.23 4.82 6.36 5.38 8.44 1.51 22.57 1.32 30.84 0.74 1.19-0.08 2.16-0.9 2.36-2 0.31-1.69 0.55-3.28 0.67-4.85 -11.7-8.04-28.85-4.44-40.84-7.71C106.77 79.44 106.68 79.89 106.69 80.35z" fill="#ffffff" stroke-width="none" opacity="0.2"></path><path id="SvgjsPath3768" d="M93.31 80.35c-0.05 2.02-0.24 3.88-0.58 5.78 -11.69-7.3-28.35-3.92-40.03-7.14 0.03-0.12 0.04-0.24 0.07-0.37 0.26-1.24 1.34-2.15 2.68-2.28 12.7-1.18 21.35-1.08 33.89-0.11C91.61 76.42 93.36 78.22 93.31 80.35zM147.24 78.63c-0.26-1.24-1.34-2.15-2.68-2.28 -12.7-1.18-21.35-1.08-33.89-0.11 -1.78 0.14-3.22 1.27-3.75 2.78 11.98 3.27 29.14-0.33 40.84 7.71C147.96 84.13 147.85 81.57 147.24 78.63z" fill="#ffffff" stroke-width="none" opacity="0.4"></path><path id="SvgjsPath3769" d="M153 78.74h-5.22c-0.02-0.07-0.02-0.14-0.04-0.21 -0.3-1.44-1.57-2.52-3.13-2.67 -12.9-1.2-21.6-1.07-33.98-0.11 -0.15 0.01-0.29 0.05-0.43 0.07l0.03-0.03c0 0-0.12 0.03-0.33 0.08 -0.09 0.02-0.19 0.04-0.28 0.06 -1.08 0.24-3.42 0.7-5.37 0.76 -3.91 0.12-4.75 0.11-8.5 0 -1.95-0.06-4.29-0.52-5.37-0.76 -0.09-0.03-0.18-0.04-0.28-0.06 -0.21-0.05-0.33-0.08-0.33-0.08l0.03 0.03c-0.14-0.02-0.28-0.06-0.43-0.07 -12.39-0.96-21.09-1.09-33.98 0.11 -1.56 0.15-2.83 1.23-3.13 2.67 -0.02 0.07-0.02 0.14-0.04 0.21H47v2.92h4.79c-0.17 1.7-0.19 3.33-0.07 4.97h1.06c-0.2-2.54-0.09-5.05 0.51-7.92 0.21-1.02 1.1-1.78 2.21-1.88 6.3-0.59 11.69-0.86 16.98-0.86 4.97 0 9.99 0.22 16.81 0.75 2 0.15 3.53 1.74 3.49 3.61 -0.05 2.2-0.28 4.22-0.69 6.29h1.07c0.39-2.02 0.62-4.02 0.67-6.27 0.01-0.66-0.13-1.28-0.39-1.85 0.33-0.07 0.85-0.16 1.51-0.21 2.51-0.18 8.07-0.14 10.11 0 0.66 0.05 1.19 0.14 1.51 0.21 -0.26 0.57-0.41 1.19-0.39 1.85 0.05 2.25 0.28 4.25 0.67 6.27h1.07c-0.41-2.07-0.64-4.09-0.68-6.29 -0.04-1.87 1.49-3.46 3.49-3.61 6.82-0.53 11.84-0.75 16.81-0.75 5.29 0 10.69 0.27 16.98 0.86 1.11 0.1 2 0.86 2.21 1.88 0.6 2.87 0.71 5.38 0.51 7.92h1.05c0.13-1.64 0.1-3.27-0.07-4.97H153V78.74z" fill="#130b3c" stroke-width="none" opacity="1"></path></g></g></g><rect id="SvgjsRect1036" width="200" height="15" x="0" y="185" fill="#ecf0f1" opacity="0.5" style="display:none;"></rect><text id="SvgjsText1037" font-family="&quot;Roboto&quot;, &quot;Helvetica Neue&quot;, Helvetica, Arial, sans-serif" style="font-size:0.84em;font-family:&quot;Roboto&quot;, &quot;Helvetica Neue&quot;, Helvetica, Arial, sans-serif;text-anchor:middle;font-weight:400;display:none;" font-size="0.84em" text-anchor="middle" font-weight="400" fill="#000000" x="100" y="185"><tspan id="SvgjsTspan1038" dy="1.2em" x="100" style="font-size:0.84em;font-family:&quot;Roboto&quot;, &quot;Helvetica Neue&quot;, Helvetica, Arial, sans-serif;text-anchor:middle;font-weight:400;">Created by face.co</tspan></text></g><defs id="SvgjsDefs1001"><radialGradient id="SvgjsRadialGradient2886" cx="100" cy="114" r="41" gradientUnits="userSpaceOnUse" class="svga-on-canvas-facehighlight-gradient-single-0"><stop id="SvgjsStop2887" stop-opacity="0.5" stop-color="#f0cdba" offset="0" ></stop><stop id="SvgjsStop2888" stop-opacity="0" stop-color="#e1b198" offset="0.9" ></stop></radialGradient><radialGradient id="SvgjsRadialGradient2890" cx="100" cy="54" r="37" gradientUnits="userSpaceOnUse" class="svga-on-canvas-facehighlight-gradient-single-1"><stop id="SvgjsStop2891" stop-opacity="0.5" stop-color="#f0cdba" offset="0" ></stop><stop id="SvgjsStop2892" stop-opacity="0" stop-color="#e1b198" offset="0.9" ></stop></radialGradient><linearGradient id="SvgjsLinearGradient3051" x1="100" y1="172" x2="100" y2="128.5" gradientUnits="userSpaceOnUse" class="svga-on-canvas-chinshadow-gradient-single-0"><stop id="SvgjsStop3052" stop-opacity="0.8" stop-color="#d29779" offset="0" ></stop><stop id="SvgjsStop3053" stop-opacity="1" stop-color="#b36a43" offset="0.7" ></stop></linearGradient><linearGradient id="SvgjsLinearGradient3055" x1="100" y1="142" x2="100" y2="139" gradientUnits="userSpaceOnUse" class="svga-on-canvas-mouth-gradient-single-0"><stop id="SvgjsStop3056" stop-opacity="1" stop-color="#d9a488" offset="0.1" ></stop><stop id="SvgjsStop3057" stop-opacity="1" stop-color="#d29779" offset="1" ></stop></linearGradient><radialGradient id="SvgjsRadialGradient3469" cx="-568.659" cy="-521.042" r="59.751" gradientTransform="matrix(0.096 -0.0248 0.0245 0.0961 141.2814 119.9893)" gradientUnits="userSpaceOnUse" class="svga-on-canvas-eyesiris-gradient-left-1"><stop id="SvgjsStop3470" stop-opacity="1" stop-color="#ffffff" offset="0" ></stop><stop id="SvgjsStop3471" stop-opacity="0" stop-color="#ffffff" offset="1" ></stop></radialGradient><radialGradient id="SvgjsRadialGradient3473" cx="-582.838" cy="-519.099" r="59.745" gradientTransform="matrix(0.0991 8.856319e-004 -0.0011 0.0991 131.1134 135.9855)" gradientUnits="userSpaceOnUse" class="svga-on-canvas-eyesiris-gradient-left-2"><stop id="SvgjsStop3474" stop-opacity="1" stop-color="#ffffff" offset="0" ></stop><stop id="SvgjsStop3475" stop-opacity="0" stop-color="#ffffff" offset="1" ></stop></radialGradient><linearGradient id="SvgjsLinearGradient3479" x1="122.67" y1="88.268" x2="123.606" y2="87.152" gradientTransform="matrix(1 0 0 1 -52 0)" gradientUnits="userSpaceOnUse" class="svga-on-canvas-eyesiris-gradient-left-5"><stop id="SvgjsStop3480" stop-opacity="1" stop-color="#ffffff" offset="0" ></stop><stop id="SvgjsStop3481" stop-opacity="0" stop-color="#ffffff" offset="1" ></stop></linearGradient><linearGradient id="SvgjsLinearGradient3483" x1="127.212" y1="82.296" x2="126.463" y2="83.189" gradientTransform="matrix(1 0 0 1 -52 0)" gradientUnits="userSpaceOnUse" class="svga-on-canvas-eyesiris-gradient-left-6"><stop id="SvgjsStop3484" stop-opacity="1" stop-color="#ffffff" offset="0" ></stop><stop id="SvgjsStop3485" stop-opacity="0" stop-color="#ffffff" offset="1" ></stop></linearGradient><linearGradient id="SvgjsLinearGradient3487" x1="129.636" y1="79.822" x2="127.91" y2="81.879" gradientTransform="matrix(1 0 0 1 -52 0)" gradientUnits="userSpaceOnUse" class="svga-on-canvas-eyesiris-gradient-left-7"><stop id="SvgjsStop3488" stop-opacity="1" stop-color="#ffffff" offset="0" ></stop><stop id="SvgjsStop3489" stop-opacity="0" stop-color="#ffffff" offset="1" ></stop></linearGradient><radialGradient id="SvgjsRadialGradient3492" cx="-568.654" cy="-521.042" r="59.752" gradientTransform="matrix(0.096 -0.0248 0.0245 0.0961 193.2804 119.9894)" gradientUnits="userSpaceOnUse" class="svga-on-canvas-eyesiris-gradient-right-1"><stop id="SvgjsStop3493" stop-opacity="1" stop-color="#ffffff" offset="0" ></stop><stop id="SvgjsStop3494" stop-opacity="0" stop-color="#ffffff" offset="1" ></stop></radialGradient><radialGradient id="SvgjsRadialGradient3496" cx="-582.833" cy="-519.102" r="59.747" gradientTransform="matrix(0.0991 8.856319e-004 -0.0011 0.0991 183.1126 135.9856)" gradientUnits="userSpaceOnUse" class="svga-on-canvas-eyesiris-gradient-right-2"><stop id="SvgjsStop3497" stop-opacity="1" stop-color="#ffffff" offset="0" ></stop><stop id="SvgjsStop3498" stop-opacity="0" stop-color="#ffffff" offset="1" ></stop></radialGradient><linearGradient id="SvgjsLinearGradient3502" x1="122.67" y1="88.268" x2="123.606" y2="87.152" gradientUnits="userSpaceOnUse" class="svga-on-canvas-eyesiris-gradient-right-5"><stop id="SvgjsStop3503" stop-opacity="1" stop-color="#ffffff" offset="0" ></stop><stop id="SvgjsStop3504" stop-opacity="0" stop-color="#ffffff" offset="1" ></stop></linearGradient><linearGradient id="SvgjsLinearGradient3506" x1="127.212" y1="82.296" x2="126.463" y2="83.189" gradientUnits="userSpaceOnUse" class="svga-on-canvas-eyesiris-gradient-right-6"><stop id="SvgjsStop3507" stop-opacity="1" stop-color="#ffffff" offset="0" ></stop><stop id="SvgjsStop3508" stop-opacity="0" stop-color="#ffffff" offset="1" ></stop></linearGradient><linearGradient id="SvgjsLinearGradient3510" x1="129.636" y1="79.822" x2="127.91" y2="81.879" gradientUnits="userSpaceOnUse" class="svga-on-canvas-eyesiris-gradient-right-7"><stop id="SvgjsStop3511" stop-opacity="1" stop-color="#ffffff" offset="0" ></stop><stop id="SvgjsStop3512" stop-opacity="0" stop-color="#ffffff" offset="1" ></stop></linearGradient><radialGradient id="SvgjsRadialGradient3687" cx="125.903" cy="85.096" r="13.25" gradientTransform="matrix(-1.0996 0.0423 0.0635 0.9207 206.5488 0.5932)" gradientUnits="userSpaceOnUse" class="svga-on-canvas-eyesback-gradient-left-0"><stop id="SvgjsStop3688" stop-opacity="1" stop-color="#ffffff" offset="0" ></stop><stop id="SvgjsStop3689" stop-opacity="1" stop-color="#fdfefe" offset="0.544" ></stop><stop id="SvgjsStop3690" stop-opacity="1" stop-color="#f6f8f9" offset="0.74" ></stop><stop id="SvgjsStop3691" stop-opacity="1" stop-color="#eaeff2" offset="0.879" ></stop><stop id="SvgjsStop3692" stop-opacity="1" stop-color="#d9e3e8" offset="0.992" ></stop><stop id="SvgjsStop3693" stop-opacity="1" stop-color="#d8e2e7" offset="1" ></stop></radialGradient><radialGradient id="SvgjsRadialGradient3695" cx="125.541" cy="85.113" r="13.249" gradientTransform="matrix(1.0996 0.0423 -0.0635 0.9207 -6.5488 0.5932)" gradientUnits="userSpaceOnUse" class="svga-on-canvas-eyesback-gradient-right-0"><stop id="SvgjsStop3696" stop-opacity="1" stop-color="#ffffff" offset="0" ></stop><stop id="SvgjsStop3697" stop-opacity="1" stop-color="#fdfefe" offset="0.544" ></stop><stop id="SvgjsStop3698" stop-opacity="1" stop-color="#f6f8f9" offset="0.74" ></stop><stop id="SvgjsStop3699" stop-opacity="1" stop-color="#eaeff2" offset="0.879" ></stop><stop id="SvgjsStop3700" stop-opacity="1" stop-color="#d9e3e8" offset="0.992" ></stop><stop id="SvgjsStop3701" stop-opacity="1" stop-color="#d8e2e7" offset="1" ></stop></radialGradient><radialGradient id="SvgjsRadialGradient3703" cx="125.903" cy="85.096" r="13.25" gradientTransform="matrix(-1.0996 0.0423 0.0635 0.9207 206.5488 0.5932)" gradientUnits="userSpaceOnUse" class="svga-on-canvas-eyesfront-gradient-left-0"><stop id="SvgjsStop3704" stop-opacity="1" stop-color="#ffffff" offset="0" ></stop><stop id="SvgjsStop3705" stop-opacity="1" stop-color="#fdfefe" offset="0.544" ></stop><stop id="SvgjsStop3706" stop-opacity="1" stop-color="#f6f8f9" offset="0.74" ></stop><stop id="SvgjsStop3707" stop-opacity="1" stop-color="#eaeff2" offset="0.879" ></stop><stop id="SvgjsStop3708" stop-opacity="1" stop-color="#d9e3e8" offset="0.992" ></stop><stop id="SvgjsStop3709" stop-opacity="1" stop-color="#d8e2e7" offset="1" ></stop></radialGradient><radialGradient id="SvgjsRadialGradient3713" cx="123.371" cy="81.442" fx="136.805" fy="80.36" r="17.038" gradientTransform="matrix(0.9884 0.1367 0.1336 -0.7354 -56.0677 125.3)" gradientUnits="userSpaceOnUse" class="svga-on-canvas-eyesfront-gradient-left-3"><stop id="SvgjsStop3714" stop-opacity="1" stop-color="#d29779" offset="0" ></stop><stop id="SvgjsStop3715" stop-opacity="0.3" stop-color="#d29779" offset="0.7" ></stop><stop id="SvgjsStop3716" stop-opacity="0" stop-color="#e1b198" offset="1" ></stop></radialGradient><radialGradient id="SvgjsRadialGradient3718" cx="78.965" cy="81.143" r="26.237" gradientTransform="matrix(0.7183 -0.06 0.0803 0.6143 8.7915 49.2595)" gradientUnits="userSpaceOnUse" class="svga-on-canvas-eyesfront-gradient-left-4"><stop id="SvgjsStop3719" stop-opacity="0" stop-color="#000000" offset="0.95" ></stop><stop id="SvgjsStop3720" stop-opacity="0.2" stop-color="#000000" offset="1" ></stop></radialGradient><radialGradient id="SvgjsRadialGradient3724" cx="125.541" cy="85.113" r="13.249" gradientTransform="matrix(1.0996 0.0423 -0.0635 0.9207 -6.5488 0.5932)" gradientUnits="userSpaceOnUse" class="svga-on-canvas-eyesfront-gradient-right-0"><stop id="SvgjsStop3725" stop-opacity="1" stop-color="#ffffff" offset="0" ></stop><stop id="SvgjsStop3726" stop-opacity="1" stop-color="#fdfefe" offset="0.544" ></stop><stop id="SvgjsStop3727" stop-opacity="1" stop-color="#f6f8f9" offset="0.74" ></stop><stop id="SvgjsStop3728" stop-opacity="1" stop-color="#eaeff2" offset="0.879" ></stop><stop id="SvgjsStop3729" stop-opacity="1" stop-color="#d9e3e8" offset="0.992" ></stop><stop id="SvgjsStop3730" stop-opacity="1" stop-color="#d8e2e7" offset="1" ></stop></radialGradient><radialGradient id="SvgjsRadialGradient3734" cx="122.972" cy="81.425" fx="136.406" fy="80.344" r="17.037" gradientTransform="matrix(-0.9884 0.1367 -0.1336 -0.7354 255.271 125.3424)" gradientUnits="userSpaceOnUse" class="svga-on-canvas-eyesfront-gradient-right-3"><stop id="SvgjsStop3735" stop-opacity="1" stop-color="#d29779" offset="0" ></stop><stop id="SvgjsStop3736" stop-opacity="0.3" stop-color="#d29779" offset="0.7" ></stop><stop id="SvgjsStop3737" stop-opacity="0" stop-color="#e1b198" offset="1" ></stop></radialGradient><radialGradient id="SvgjsRadialGradient3739" cx="79.515" cy="81.186" r="26.237" gradientTransform="matrix(-0.7183 -0.06 -0.0803 0.6143 191.2076 49.2665)" gradientUnits="userSpaceOnUse" class="svga-on-canvas-eyesfront-gradient-right-4"><stop id="SvgjsStop3740" stop-opacity="0" stop-color="#000000" offset="0.95" ></stop><stop id="SvgjsStop3741" stop-opacity="0.2" stop-color="#000000" offset="1" ></stop></radialGradient></defs></svg>